<?xml version="1.0" standalone="no"?>
<!DOCTYPE svg PUBLIC "-//W3C//DTD SVG 20010904//EN"
 "http://www.w3.org/TR/2001/REC-SVG-20010904/DTD/svg10.dtd">
<svg version="1.0" xmlns="http://www.w3.org/2000/svg"
 width="1200.000000pt" height="1200.000000pt" viewBox="0 0 1200.000000 1200.000000"
 preserveAspectRatio="xMidYMid meet">
<metadata>
Created by potrace 1.16, written by Peter Selinger 2001-2019
</metadata>
<g transform="translate(0.000000,1200.000000) scale(0.100000,-0.100000)"
fill="#000000" stroke="none">
<path d="M9725 11453 c-95 -8 -152 -30 -360 -133 l-220 -110 -203 -45 c-944
-210 -1839 -494 -2557 -812 -1045 -463 -1855 -1055 -2289 -1673 -183 -260
-309 -537 -376 -821 -71 -304 -79 -735 -19 -1034 113 -563 523 -1017 1088
-1205 230 -77 462 -110 770 -110 503 0 862 111 1059 326 73 79 106 141 216
405 91 219 105 272 107 429 1 76 6 50 49 -245 52 -356 77 -503 146 -860 202
-1039 235 -1517 143 -2070 -105 -630 -386 -1179 -815 -1596 -271 -262 -558
-439 -889 -548 -255 -83 -431 -111 -713 -111 -209 0 -325 11 -500 46 -396 79
-724 253 -982 520 -182 189 -291 393 -336 631 -23 125 -15 326 19 443 67 234
161 392 342 579 314 324 713 501 1130 501 134 0 224 -11 336 -40 259 -66 491
-236 588 -431 51 -102 56 -140 42 -323 -14 -169 -4 -283 28 -326 35 -49 62
-55 246 -55 l170 1 195 63 c328 105 456 184 528 327 50 100 63 163 69 344 10
321 -40 471 -217 651 -215 218 -558 379 -964 454 -516 94 -1173 57 -1688 -95
-763 -226 -1464 -762 -1727 -1322 -102 -217 -148 -423 -158 -703 -14 -417 67
-731 258 -998 237 -331 624 -592 1115 -750 494 -159 1156 -212 1769 -142 1054
122 2084 631 2836 1401 513 527 813 1232 893 2104 60 649 10 1142 -229 2255
-121 564 -177 888 -211 1205 -22 216 -15 617 16 815 56 368 150 685 300 1018
201 443 508 868 853 1178 100 90 115 100 190 125 197 63 322 147 347 230 18
63 24 260 10 341 -19 116 -53 145 -191 163 -81 10 -131 11 -214 3z m-68 -170
c-4 -3 0 -15 10 -25 15 -17 15 -19 -1 -37 -10 -10 -65 -40 -124 -66 -175 -78
-223 -104 -307 -168 -103 -78 -131 -104 -155 -144 -27 -46 -16 -41 16 7 22 33
160 146 214 175 25 13 1 -7 -85 -73 -44 -33 -97 -83 -119 -111 -21 -28 -43
-48 -49 -44 -6 3 -7 1 -3 -6 5 -7 -30 -51 -90 -114 -169 -177 -288 -336 -434
-578 -45 -74 -84 -136 -87 -139 -4 -3 19 43 50 102 100 191 253 400 431 589
58 61 47 51 -31 -27 -236 -239 -418 -497 -541 -769 -228 -505 -351 -962 -393
-1462 -15 -184 -7 -643 15 -818 46 -364 103 -685 216 -1206 117 -542 177 -883
216 -1224 22 -183 24 -602 6 -785 -89 -873 -398 -1548 -937 -2042 -172 -158
-199 -179 -550 -442 -691 -517 -1194 -741 -1846 -823 -192 -24 -694 -24 -874
0 -611 82 -1169 296 -1480 567 -195 170 -298 295 -375 454 -75 152 -101 267
-107 458 -8 228 20 382 103 572 40 93 228 378 343 521 44 55 81 106 81 112 0
19 178 163 310 252 295 199 573 334 860 416 237 67 293 75 547 75 389 -1 704
-16 833 -40 138 -25 348 -94 468 -152 204 -99 400 -268 465 -398 30 -61 32
-71 32 -175 0 -91 -4 -118 -21 -156 -43 -93 -144 -158 -315 -204 -50 -13 -97
-29 -104 -35 -8 -6 -24 -10 -37 -8 -21 3 -23 8 -25 66 -4 176 -38 347 -93 468
-72 159 -174 272 -356 394 -197 132 -398 180 -754 180 -510 0 -981 -151 -1372
-442 -38 -27 -66 -53 -63 -58 3 -4 -3 -14 -12 -21 -12 -10 -14 -10 -9 -1 13
21 -10 13 -34 -13 -13 -14 -20 -25 -15 -25 5 0 -21 -30 -57 -68 -102 -106
-184 -225 -259 -376 -67 -134 -83 -146 -33 -25 50 122 136 246 258 377 43 45
74 82 68 82 -5 0 -45 -37 -88 -82 -280 -297 -384 -569 -384 -1003 0 -304 59
-542 195 -785 110 -195 242 -349 410 -475 323 -243 631 -368 1045 -427 61 -8
195 -13 375 -13 231 0 290 3 340 17 33 9 107 22 165 28 237 26 491 89 701 175
269 110 453 223 695 427 45 37 85 68 88 68 20 0 136 102 249 220 133 138 193
225 331 475 342 623 479 1451 381 2310 -35 300 -88 632 -171 1056 -60 311
-128 716 -153 914 -71 567 -46 1037 80 1540 152 602 486 1253 873 1698 39 45
100 118 136 162 197 245 300 346 458 452 48 32 106 83 140 122 31 36 88 96
125 132 l68 66 -53 6 c-29 4 -89 6 -133 5 -44 -1 -64 -3 -45 -5 56 -6 80 -13
80 -23 0 -12 -33 -13 -45 -1 -11 9 -119 22 -110 13 7 -8 -195 -53 -206 -47 -4
3 -11 1 -14 -5 -4 -6 -15 -8 -26 -5 -11 4 -19 2 -19 -5 0 -6 -10 -8 -26 -4
-20 5 -25 4 -20 -5 6 -9 0 -10 -20 -5 -19 5 -25 4 -20 -4 4 -7 2 -10 -7 -6
-18 6 -159 -29 -446 -112 -940 -272 -1751 -619 -2390 -1020 -237 -150 -559
-389 -553 -413 1 -7 -2 -9 -9 -6 -12 8 -71 -44 -64 -55 3 -4 -3 -14 -12 -21
-12 -10 -14 -10 -9 -1 4 6 3 12 -1 12 -12 0 -95 -85 -88 -91 2 -3 -21 -30 -53
-60 l-57 -54 55 60 c35 38 21 27 -38 -30 -176 -170 -355 -413 -457 -620 -115
-234 -165 -448 -165 -707 0 -240 42 -436 134 -623 119 -241 257 -381 494 -499
226 -113 560 -176 857 -162 156 7 214 16 410 62 120 29 160 43 203 71 28 20
52 42 52 49 0 14 22 27 115 69 47 21 55 22 42 7 -10 -11 -14 -26 -10 -40 4
-16 -12 -52 -59 -130 -35 -59 -80 -142 -101 -184 -80 -164 -272 -270 -568
-314 -173 -25 -490 -15 -658 20 -294 63 -505 176 -727 388 -134 130 -212 228
-276 353 -109 211 -149 385 -149 650 0 264 30 415 137 688 103 262 201 438
369 662 53 70 102 140 110 154 16 32 206 217 325 317 828 697 2068 1262 3650
1663 321 81 607 146 692 155 26 3 63 17 83 30 46 31 351 186 367 186 6 0 8 -3
5 -7z m-1560 -1038 c-4 -8 -46 -63 -95 -122 -530 -642 -870 -1376 -1002 -2158
-51 -304 -64 -473 -63 -860 1 -302 -1 -344 -12 -307 -18 60 -38 78 -98 93 -63
16 -211 16 -290 1 -31 -6 -113 -39 -182 -72 -151 -73 -274 -122 -398 -156
-113 -32 -338 -43 -468 -24 -435 63 -755 332 -854 716 -24 91 -24 299 -1 404
86 394 356 799 771 1158 581 502 1383 922 2420 1268 223 74 282 87 272 59z
m309 -367 c-8 -18 -35 -80 -60 -138 -298 -673 -407 -1400 -321 -2140 33 -284
98 -659 176 -1020 179 -824 245 -1222 270 -1628 25 -391 -28 -874 -136 -1257
-155 -549 -390 -962 -756 -1325 -122 -121 -317 -292 -389 -340 -45 -30 -31
-16 115 111 265 231 474 457 608 661 263 400 434 893 504 1458 25 204 25 725
0 925 -40 317 -102 677 -177 1020 -190 870 -265 1347 -277 1760 -14 508 72
1030 247 1502 50 133 193 443 204 443 4 0 0 -15 -8 -32z m-4182 -1908 c-27
-206 -15 -445 32 -610 29 -103 83 -212 111 -224 11 -5 35 -36 52 -68 18 -32
60 -95 93 -139 63 -85 67 -114 12 -86 -35 18 -118 105 -161 167 -172 253 -229
640 -147 1002 9 38 17 68 19 66 2 -2 -3 -50 -11 -108z m-289 -930 c73 -211
179 -402 301 -545 81 -94 88 -108 29 -58 -66 55 -162 155 -214 221 -40 53 -51
60 -31 21 6 -10 8 -19 5 -19 -17 0 -119 244 -111 267 3 7 1 13 -3 13 -5 0 -9
10 -9 23 0 12 -4 60 -8 107 -3 47 -4 83 -1 80 4 -3 23 -53 42 -110z m3310
-610 c20 -113 65 -353 100 -535 68 -354 102 -552 135 -790 23 -170 39 -358 29
-347 -4 4 -15 54 -24 112 -37 231 -99 577 -141 795 -85 437 -147 836 -158
1020 l-6 80 15 -65 c7 -36 30 -157 50 -270z m-2829 -104 c231 -171 464 -267
754 -312 128 -20 439 -23 555 -5 289 44 483 144 591 306 19 27 34 45 34 39 0
-18 -75 -127 -111 -160 -180 -168 -555 -257 -939 -225 -314 27 -559 107 -779
256 -91 60 -215 164 -199 165 4 0 47 -29 94 -64z m645 -1986 c190 -63 319
-148 456 -299 111 -123 153 -188 190 -292 25 -72 41 -203 29 -234 -11 -31 -32
1 -50 76 -20 78 -62 186 -94 239 -12 19 -22 51 -22 70 0 20 -13 56 -29 85 -64
112 -302 275 -520 356 -101 37 -72 37 40 -1z m1300 -414 l32 -61 -46 44 -46
44 20 -64 c28 -87 23 -250 -9 -322 -48 -108 -172 -198 -330 -242 -99 -28 -82
-12 36 34 178 68 241 124 276 241 32 107 17 233 -43 360 -17 36 -26 67 -21 68
6 2 10 13 10 25 0 18 6 15 44 -22 25 -24 59 -71 77 -105z m-3698 -778 c-57
-276 -44 -605 32 -829 34 -99 84 -196 114 -222 14 -12 46 -56 70 -97 24 -41
81 -126 128 -187 85 -113 97 -146 44 -119 -81 42 -216 212 -301 378 -113 223
-154 404 -154 683 -1 200 11 285 56 425 37 117 40 109 11 -32z m-404 -923 c64
-173 150 -319 271 -463 34 -41 60 -76 58 -78 -12 -11 -208 189 -271 276 -14
20 -13 16 3 -17 29 -60 17 -54 -19 11 -44 76 -83 184 -76 210 5 17 4 18 -5 6
-9 -12 -10 -7 -5 20 3 19 3 30 -2 23 -6 -8 -9 88 -4 117 3 13 21 -25 50 -105z
m639 -758 c212 -131 446 -227 812 -334 63 -18 95 -30 70 -27 -76 10 -340 80
-445 118 -224 81 -500 236 -646 362 -95 83 -84 88 20 10 55 -41 140 -99 189
-129z"/>
<path d="M8396 10137 c-92 -79 -127 -116 -152 -162 -18 -33 -31 -61 -29 -63 2
-3 17 0 32 6 15 6 39 13 53 16 19 4 44 35 104 133 44 70 88 138 99 151 35 39
15 23 -107 -81z"/>
<path d="M7761 8678 c-17 -68 -63 -222 -101 -343 -102 -323 -143 -506 -174
-785 -54 -477 -20 -855 160 -1805 186 -978 237 -1463 205 -1950 -23 -357 -61
-573 -133 -760 -50 -128 -52 -134 -27 -91 11 22 43 89 69 150 26 61 65 147 88
192 166 331 275 701 328 1119 23 176 26 652 6 820 -41 339 -96 648 -212 1190
-198 926 -259 1384 -247 1839 5 201 18 303 58 460 11 43 18 80 16 82 -2 3 -19
-51 -36 -118z"/>
<path d="M4150 7103 c-1 -28 68 -201 141 -353 43 -91 84 -188 90 -216 10 -44
16 -53 44 -62 17 -7 38 -12 46 -12 8 0 84 -34 169 -75 226 -108 417 -164 616
-179 67 -6 66 -5 -21 9 -261 43 -463 138 -630 296 -84 80 -111 119 -93 137 17
17 -10 70 -43 87 -15 8 -40 15 -54 15 -41 0 -82 26 -126 82 -48 61 -73 107
-110 208 -15 41 -28 70 -29 63z"/>
<path d="M5750 4033 c8 -11 44 -56 80 -101 129 -159 160 -259 112 -364 -35
-80 -15 -54 28 35 22 45 51 102 65 126 20 36 25 58 25 116 0 60 4 76 25 105
14 19 25 38 25 42 0 17 -27 7 -49 -18 -27 -32 -48 -28 -167 28 -47 22 -102 42
-122 45 -35 6 -36 6 -22 -14z"/>
<path d="M7043 2150 c-18 -16 -46 -57 -64 -92 -17 -35 -45 -83 -62 -107 -16
-24 -24 -40 -16 -36 32 18 148 117 199 170 49 51 52 56 28 50 -25 -6 -28 -5
-28 19 0 34 -17 33 -57 -4z"/>
</g>
</svg>
